<svg width="16" height="16" viewBox="0 0 16 16" fill="none" xmlns="http://www.w3.org/2000/svg">
<rect width="16" height="16" rx="2" fill="white"/>
<g clip-path="url(#clip0_4413_2430)">
<path d="M12.8 4.84573C13.5738 4.84573 14.2 4.20929 14.2 3.42287C14.2 2.63644 13.5738 2 12.8 2C12.0262 2 11.4 2.63644 11.4 3.42287C11.4 4.20929 12.0262 4.84573 12.8 4.84573Z" fill="#292929"/>
<path d="M15 6.47192H12.4789C12.4789 9.04967 10.474 11.161 8.00188 11.161C5.52974 11.161 3.5249 9.04967 3.5249 6.47192H1C1 10.5015 4.13351 13.7895 8 13.7895C11.8665 13.7895 15 10.5015 15 6.47192Z" fill="#292929"/>
<path d="M8.86727 5.65881H7L7.50364 8.08923C7.55454 8.33727 7.75455 8.50455 8 8.50455C8.24545 8.50455 8.44727 8.33727 8.49636 8.08923L9 5.65881H8.86727Z" fill="url(#paint0_linear_4413_2430)"/>
<path d="M8.70811 4.73587C8.51892 4.54359 8.26847 4.43921 8 4.43921C7.44865 4.43921 7 4.89519 7 5.45554C7 6.0159 7.44865 6.47188 8 6.47188C8.55135 6.47188 9 6.0159 9 5.45554C9 5.18452 8.8973 4.92815 8.70811 4.73587Z" fill="#F91F15"/>
</g>
<defs>
<linearGradient id="paint0_linear_4413_2430" x1="8" y1="5.65881" x2="8" y2="8.50455" gradientUnits="userSpaceOnUse">
<stop stop-color="#BC0017"/>
<stop offset="0.11" stop-color="#C30416"/>
<stop offset="0.28" stop-color="#D90F16"/>
<stop offset="0.47" stop-color="#F91F15"/>
</linearGradient>
<clipPath id="clip0_4413_2430">
<rect width="14" height="11.7895" fill="white" transform="translate(1 2)"/>
</clipPath>
</defs>
</svg>
