<svg width="38" height="32" viewBox="0 0 38 32" fill="none" xmlns="http://www.w3.org/2000/svg">
<g clip-path="url(#clip0_3553_6240)">
<path d="M32.0286 7.72414C34.1288 7.72414 35.8286 5.99664 35.8286 3.86207C35.8286 1.72749 34.1288 0 32.0286 0C29.9283 0 28.2286 1.72749 28.2286 3.86207C28.2286 5.99664 29.9283 7.72414 32.0286 7.72414Z" fill="#292929"/>
<path d="M38 12.1379H31.1569C31.1569 19.1347 25.7152 24.8656 19.0051 24.8656C12.295 24.8656 6.8533 19.1347 6.8533 12.1379H0C0 23.0753 8.50525 32 19 32C29.4948 32 38 23.0753 38 12.1379Z" fill="#292929"/>
<path d="M21.354 9.93103H16.2857L17.6527 16.5279C17.7909 17.2011 18.3338 17.6552 19 17.6552C19.6662 17.6552 20.214 17.2011 20.3473 16.5279L21.7143 9.93103H21.354Z" fill="url(#paint0_linear_3553_6240)"/>
<path d="M20.922 7.42595C20.4085 6.90405 19.7287 6.62073 19 6.62073C17.5035 6.62073 16.2857 7.85838 16.2857 9.37935C16.2857 10.9003 17.5035 12.138 19 12.138C20.4965 12.138 21.7143 10.9003 21.7143 9.37935C21.7143 8.64372 21.4355 7.94785 20.922 7.42595Z" fill="#F91F15"/>
</g>
<defs>
<linearGradient id="paint0_linear_3553_6240" x1="19" y1="9.93103" x2="19" y2="17.6552" gradientUnits="userSpaceOnUse">
<stop stop-color="#BC0017"/>
<stop offset="0.11" stop-color="#C30416"/>
<stop offset="0.28" stop-color="#D90F16"/>
<stop offset="0.47" stop-color="#F91F15"/>
</linearGradient>
<clipPath id="clip0_3553_6240">
<rect width="38" height="32" fill="white"/>
</clipPath>
</defs>
</svg>
