<svg width="18" height="18" viewBox="0 0 18 18" fill="none" xmlns="http://www.w3.org/2000/svg">
<path d="M8.22912 3.27364C8.53579 2.80878 9.23477 2.81599 9.53197 3.28695L9.58899 3.39527L10.984 6.57191L14.1618 6.95961C14.7937 7.03691 15.0707 7.79828 14.636 8.26333L12.3458 10.7102L12.8989 14.0218C13.0039 14.6529 12.3449 15.1338 11.7756 14.8418L8.88292 13.3566L6.00733 14.8342C5.43055 15.1304 4.76562 14.633 4.88693 13.9961L5.51127 10.7149L3.07566 8.27948C2.61683 7.82068 2.88768 7.03435 3.53181 6.95581L6.69059 6.57001L8.1702 3.38102L8.22912 3.27364ZM7.52875 7.07839C7.41549 7.32266 7.18405 7.49145 6.91676 7.52405L4.04592 7.87373L6.27246 10.1001C6.45472 10.2824 6.53546 10.5435 6.48723 10.7967L5.91705 13.7861L8.52751 12.4463L8.61304 12.4083C8.78738 12.3437 8.9794 12.3437 9.15376 12.4083L9.23928 12.4463L11.8745 13.7994L11.3708 10.7758C11.331 10.5369 11.4051 10.2932 11.5704 10.1163L13.6629 7.87849L10.756 7.52405C10.4831 7.49074 10.2478 7.31584 10.1373 7.06413L8.87152 4.18017L7.52875 7.07839Z" fill="#FFC900"/>
</svg>
