<svg width="12" height="11" viewBox="0 0 12 11" fill="none" xmlns="http://www.w3.org/2000/svg">
<path fill-rule="evenodd" clip-rule="evenodd" d="M6 0C9.18645 0 11.9999 2.11226 12 4.97709C12 7.84198 9.18649 9.95418 6 9.95418C5.53142 9.95418 5.07517 9.90733 4.63636 9.82303L3.09375 10.8689C2.58606 11.213 1.90909 10.8396 1.90909 10.2154V8.62193C0.758993 7.73341 0 6.44612 0 4.97709C7.51172e-05 2.11226 2.81355 0 6 0ZM6 1.11913C3.16162 1.11913 1.09099 2.96244 1.09091 4.97709C1.09091 6.09521 1.70654 7.14055 2.7603 7.8711L3 8.33449V9.59133L4.22195 8.764L4.64062 8.68422C5.07158 8.78221 5.52748 8.83504 6 8.83504C8.83843 8.83504 10.9091 6.99179 10.9091 4.97709C10.909 2.96244 8.83838 1.11913 6 1.11913Z" fill="#05BCBC"/>
</svg>
