<svg width="27" height="27" viewBox="0 0 27 27" fill="none" xmlns="http://www.w3.org/2000/svg">
<path d="M0 19.8997C0.203724 19.4164 0.293077 18.901 0.428894 18.4033C0.743416 17.2506 1.04364 16.0943 1.36173 14.9416C1.44395 14.648 1.41892 14.3867 1.29026 14.1075C-0.368134 10.4309 0.500376 6.14221 3.48477 3.42865C5.51844 1.585 7.93096 0.77953 10.6652 1.0516C14.7968 1.46329 18.1101 4.542 18.8499 8.61233C19.7649 13.6671 16.4016 18.5251 11.3478 19.4129C9.46068 19.7458 7.62717 19.5203 5.87942 18.7148C5.61851 18.5931 5.37547 18.5716 5.10026 18.6468C3.46332 19.0942 1.81923 19.5346 0.178706 19.9713C0.12152 19.9857 0.06076 19.9892 0 20C0 19.9642 0 19.9283 0 19.8962V19.8997Z" fill="#A6A6A6"/>
<path d="M19.186 6C21.0007 6.45944 22.5649 7.28427 23.8388 8.6011C25.7842 10.6089 26.6697 13.0255 26.521 15.8039C26.4628 16.9145 26.1943 17.9853 25.7189 18.9947C25.5664 19.3239 25.5519 19.6205 25.6463 19.9642C26.1071 21.632 26.55 23.3033 27 24.9818C26.8875 25.0325 26.7895 24.9638 26.6952 24.9385C25.0546 24.5044 23.4105 24.0702 21.7737 23.6253C21.5269 23.5601 21.3128 23.5891 21.0805 23.6867C17.531 25.1844 14.221 24.7684 11.1614 22.4278C10.8021 22.1528 10.4863 21.8272 10.1669 21.5125C10.1234 21.4691 10.0835 21.4257 10 21.3389C13.8109 21.0458 16.8087 19.4034 18.7577 16.1403C20.7066 12.8808 20.7285 9.48019 19.1824 6H19.186Z" fill="#A6A6A6"/>
</svg>
