<svg width="18" height="18" viewBox="0 0 18 18" fill="none" xmlns="http://www.w3.org/2000/svg">
<path d="M8.69542 3.05991C9.72905 3.05991 10.5675 3.89835 10.5675 4.93198V6.84018H12.4601C13.7834 6.84044 14.7955 8.01955 14.5948 9.32748L14.0128 13.1078C13.8507 14.1614 12.9441 14.9397 11.878 14.9398H4.62804C3.73334 14.9398 3.00792 14.2144 3.00792 13.3197V9.54037C3.00792 8.64567 3.73334 7.92026 4.62804 7.92026H5.89659L7.79698 3.64389L7.86534 3.51694C8.04378 3.23568 8.3558 3.06023 8.69542 3.05991ZM4.62804 9.00034C4.3298 9.00034 4.088 9.24214 4.088 9.54037V13.3197C4.088 13.6179 4.3298 13.8597 4.62804 13.8597H5.70811V9.00034H4.62804ZM6.8839 8.35873C6.85735 8.41843 6.82412 8.47391 6.78819 8.5267V13.8597H11.878C12.4108 13.8596 12.8641 13.4712 12.9454 12.9447L13.5275 9.1644C13.628 8.51034 13.1218 7.92052 12.4601 7.92026H10.5675C9.97131 7.92003 9.48854 7.43638 9.48839 6.84018V4.93198C9.48839 4.51524 9.16573 4.17392 8.75694 4.14291L6.8839 8.35873Z" fill="#F91F15"/>
</svg>
