<svg width="18" height="18" viewBox="0 0 18 18" fill="none" xmlns="http://www.w3.org/2000/svg">
<path d="M3.75 11.25C4.16421 11.25 4.5 11.5858 4.5 12C4.5 12.4142 4.16421 12.75 3.75 12.75C3.33579 12.75 3 12.4142 3 12C3 11.5858 3.33579 11.25 3.75 11.25ZM14.625 11.4375C14.9357 11.4375 15.1875 11.6893 15.1875 12C15.1875 12.3107 14.9357 12.5625 14.625 12.5625H6C5.68934 12.5625 5.4375 12.3107 5.4375 12C5.4375 11.6893 5.68934 11.4375 6 11.4375H14.625ZM3.75 8.25C4.16421 8.25 4.5 8.58579 4.5 9C4.5 9.41421 4.16421 9.75 3.75 9.75C3.33579 9.75 3 9.41421 3 9C3 8.58579 3.33579 8.25 3.75 8.25ZM14.625 8.4375C14.9357 8.4375 15.1875 8.68934 15.1875 9C15.1875 9.31066 14.9357 9.5625 14.625 9.5625H6C5.68934 9.5625 5.4375 9.31066 5.4375 9C5.4375 8.68934 5.68934 8.4375 6 8.4375H14.625ZM3.75 5.25C4.16421 5.25 4.5 5.58579 4.5 6C4.5 6.41421 4.16421 6.75 3.75 6.75C3.33579 6.75 3 6.41421 3 6C3 5.58579 3.33579 5.25 3.75 5.25ZM14.625 5.4375C14.9357 5.4375 15.1875 5.68934 15.1875 6C15.1875 6.31066 14.9357 6.5625 14.625 6.5625H6C5.68934 6.5625 5.4375 6.31066 5.4375 6C5.4375 5.68934 5.68934 5.4375 6 5.4375H14.625Z" fill="#0397EA"/>
</svg>
