<svg width="12" height="12" viewBox="0 0 12 12" fill="none" xmlns="http://www.w3.org/2000/svg">
<path d="M5.6875 0C6.72113 0 7.55957 0.83844 7.55957 1.87207V3.78027H9.45215C10.7755 3.78053 11.7876 4.95964 11.5869 6.26758L11.0049 10.0479C10.8428 11.1015 9.93615 11.8798 8.87012 11.8799H1.62012C0.725416 11.8799 0 11.1545 0 10.2598V6.48047C0 5.58577 0.725416 4.86035 1.62012 4.86035H2.88867L4.78906 0.583984L4.85742 0.457031C5.03586 0.17577 5.34789 0.000324615 5.6875 0ZM1.62012 5.94043C1.32188 5.94043 1.08008 6.18224 1.08008 6.48047V10.2598C1.08008 10.558 1.32188 10.7998 1.62012 10.7998H2.7002V5.94043H1.62012ZM3.87598 5.29883C3.84943 5.35852 3.8162 5.414 3.78027 5.4668V10.7998H8.87012C9.4029 10.7997 9.85623 10.4113 9.9375 9.88477L10.5195 6.10449C10.6201 5.45044 10.1138 4.86061 9.45215 4.86035H7.55957C6.96339 4.86012 6.48062 4.37647 6.48047 3.78027V1.87207C6.48047 1.45534 6.15782 1.11402 5.74902 1.08301L3.87598 5.29883Z" fill="#F91F15"/>
</svg>
