<svg width="18" height="18" viewBox="0 0 18 18" fill="none" xmlns="http://www.w3.org/2000/svg">
<path d="M13.5 8.8017C13.5 6.802 11.5745 5.02886 9 5.02886C6.42554 5.02886 4.5 6.802 4.5 8.8017L4.50781 9.02174C4.58366 10.1155 5.22183 11.1089 6.2334 11.7727L6.47656 11.9325L6.46484 12.2289C6.44824 12.6336 6.39246 13.105 6.32617 13.5441C6.36106 13.5231 6.39843 13.5039 6.43457 13.4808C6.78875 13.2543 7.15683 12.953 7.45703 12.6187L7.64746 12.4057L7.92285 12.463C8.26945 12.5346 8.62986 12.5745 9 12.5745L9.23926 12.5695C11.6928 12.4637 13.5 10.739 13.5 8.8017ZM14.5 8.8017C14.5 11.5372 11.9484 13.6034 9 13.6034C8.65623 13.6034 8.32084 13.5738 7.99609 13.521C7.673 13.8452 7.31161 14.1313 6.96191 14.3549C6.55106 14.6176 6.11129 14.8248 5.74316 14.8834L5.01172 15L5.17969 14.2585C5.28394 13.7989 5.39998 13.0758 5.44727 12.466C4.35461 11.6584 3.6058 10.4677 3.51074 9.0981L3.5 8.8017C3.5 6.06619 6.05161 4 9 4C11.9484 4 14.5 6.06619 14.5 8.8017Z" fill="#05BCBC"/>
</svg>
