<svg width="18" height="18" viewBox="0 0 18 18" fill="none" xmlns="http://www.w3.org/2000/svg">
<path d="M8.69531 3.05988C9.72894 3.05988 10.5674 3.89832 10.5674 4.93195V6.84015H12.46C13.7833 6.84041 14.7954 8.01952 14.5947 9.32745L14.0127 13.1077C13.8506 14.1614 12.944 14.9397 11.8779 14.9398H4.62793C3.73323 14.9398 3.00781 14.2143 3.00781 13.3196V9.54034C3.00781 8.64564 3.73323 7.92023 4.62793 7.92023H5.89648L7.79688 3.64386L7.86523 3.51691C8.04367 3.23565 8.3557 3.0602 8.69531 3.05988ZM4.62793 9.00031C4.3297 9.00031 4.08789 9.24211 4.08789 9.54034V13.3196C4.08789 13.6179 4.3297 13.8597 4.62793 13.8597H5.70801V9.00031H4.62793ZM6.88379 8.3587C6.85724 8.4184 6.82401 8.47388 6.78809 8.52667V13.8597H11.8779C12.4107 13.8596 12.864 13.4712 12.9453 12.9446L13.5273 9.16437C13.6279 8.51031 13.1216 7.92049 12.46 7.92023H10.5674C9.9712 7.92 9.48843 7.43635 9.48828 6.84015V4.93195C9.48828 4.51521 9.16563 4.17389 8.75684 4.14288L6.88379 8.3587Z" fill="#F91F15"/>
</svg>
