<svg width="18" height="18" viewBox="0 0 18 18" fill="none" xmlns="http://www.w3.org/2000/svg">
<path fill-rule="evenodd" clip-rule="evenodd" d="M9 3C12.1864 3 14.9999 5.11226 15 7.97709C15 10.842 12.1865 12.9542 9 12.9542C8.53142 12.9542 8.07517 12.9073 7.63636 12.823L6.09375 13.8689C5.58606 14.213 4.90909 13.8396 4.90909 13.2154V11.6219C3.75899 10.7334 3 9.44612 3 7.97709C3.00008 5.11226 5.81355 3 9 3ZM9 4.11913C6.16162 4.11913 4.09099 5.96244 4.09091 7.97709C4.09091 9.09521 4.70654 10.1406 5.7603 10.8711L6 11.3345V12.5913L7.22195 11.764L7.64062 11.6842C8.07158 11.7822 8.52748 11.835 9 11.835C11.8384 11.835 13.9091 9.99179 13.9091 7.97709C13.909 5.96244 11.8384 4.11913 9 4.11913Z" fill="#05BCBC"/>
</svg>
