<svg width="27" height="27" viewBox="0 0 27 27" fill="none" xmlns="http://www.w3.org/2000/svg">
<path d="M14 15C17.866 15 21 11.866 21 8C21 4.13401 17.866 1 14 1C10.134 1 7 4.13401 7 8C7 11.866 10.134 15 14 15Z" fill="#A6A6A6"/>
<path d="M14 17.0276C16.3184 17.0276 18.4119 16.2535 19.9023 15.0096C24.0532 16.3704 27 18.794 27 22.8205V24.9471C27 26.0807 25.9248 27 24.5978 27H3.40219C2.0757 27 1 26.0807 1 24.9471V22.7784C1 18.7634 3.94356 16.3507 8.08647 15C9.57776 16.2496 11.6815 17.0276 14 17.0276Z" fill="#A6A6A6"/>
</svg>
